<svg viewBox="0 0 24 24" xmlns="http://www.w3.org/2000/svg" fill="currentColor" style="--icon-color:#D4D4D4; fill:var(--icon-color);">
  <path d="M19.14 12.94a7.07 7.07 0 0 0 0-1.88l2.03-1.58a.5.5 0 0 0 .12-.63l-1.92-3.32a.5.5 0 0 0-.6-.22l-2.39.96a7.07 7.07 0 0 0-1.6-.93l-.36-2.54A.5.5 0 0 0 13.5 2h-3a.5.5 0 0 0-.5.43l-.36 2.54c-.56.22-1.09.52-1.6.93l-2.39-.96a.5.5 0 0 0-.6.22L2.7 8.85a.5.5 0 0 0 .12.63L4.85 11a7.07 7.07 0 0 0 0 1.88l-2.03 1.58a.5.5 0 0 0-.12.63l1.92 3.32c.14.24.42.34.66.26l2.39-.96c.5.4 1.04.71 1.6.93l.36 2.54c.05.25.27.43.5.43h3c.23 0 .45-.18.5-.43l.36-2.54c.56-.22 1.09-.52 1.6-.93l2.39.96c.24.1.52-.02.66-.26l1.92-3.32a.5.5 0 0 0-.12-.63l-2.03-1.58zM12 15.5A3.5 3.5 0 1 1 12 8.5a3.5 3.5 0 0 1 0 7z"/>
</svg>
